<?xml version="1.0" standalone="no"?><!DOCTYPE svg PUBLIC "-//W3C//DTD SVG 1.1//EN" "http://www.w3.org/Graphics/SVG/1.1/DTD/svg11.dtd"><svg t="1733041723184" class="icon" viewBox="0 0 1024 1024" version="1.1" xmlns="http://www.w3.org/2000/svg" p-id="4294" xmlns:xlink="http://www.w3.org/1999/xlink" width="200" height="200"><path d="M771.81296764 114.067254h-513.2971A85.542126 85.542126 0 0 0 172.96265464 199.620466v28.480783h684.414612v-28.480783a85.542126 85.542126 0 0 0-85.564299-85.553212m-149.443734-57.03917l12.594071 90.009917H395.33227164l12.594071-90.009917h214.442891M629.22058564 0H401.07499064c-23.53628 0-45.453955 19.046316-48.713336 42.383041l-16.629496 119.333262c-3.259381 23.281294 13.303597 42.360869 36.873135 42.360868h285.14042c23.53628 0 40.132516-19.046316 36.850963-42.383041L677.90066264 42.360869C674.65236764 19.079575 652.75686464 0 629.22058564 0m156.849403 285.173679H244.21450064c-31.352143 0-54.722127 25.565078-51.884026 56.806357l46.784314 513.773813c2.815928 31.241279 30.842171 56.806357 62.194314 56.806357h427.732802c31.363229 0 59.378386-25.565078 62.183228-56.806357l46.739969-513.773813c2.838101-31.241279-20.531884-56.806357-51.895113-56.806357m-384.994998 513.2971h-85.564298l-28.514042-399.21876h114.067254v399.240933z m171.117511 0h-114.078341v-399.21876h114.078341z m142.592382 0h-85.564298v-399.21876h114.07834z m0 0" p-id="4295"></path></svg>