<?xml version="1.0" encoding="UTF-8" standalone="no"?>
<svg
   width="300"
   height="300"
   version="1.1"
   id="svg11"
   sodipodi:docname="logo.svg"
   inkscape:version="1.4 (e7c3feb1, 2024-10-09)"
   xmlns:inkscape="http://www.inkscape.org/namespaces/inkscape"
   xmlns:sodipodi="http://sodipodi.sourceforge.net/DTD/sodipodi-0.dtd"
   xmlns:xlink="http://www.w3.org/1999/xlink"
   xmlns="http://www.w3.org/2000/svg"
   xmlns:svg="http://www.w3.org/2000/svg">
  <defs
     id="defs11">
    <pattern
       inkscape:collect="always"
       xlink:href="#pattern13"
       preserveAspectRatio="xMidYMid"
       id="pattern1"
       patternTransform="matrix(2.422506,0,0,2.4141784,1e-5,0)" />
    <pattern
       patternUnits="userSpaceOnUse"
       width="123.83871"
       height="124.26588"
       patternTransform="translate(96.182239,79.980469)"
       preserveAspectRatio="xMidYMid"
       id="pattern13">
      <path
         d="m 50.136121,15.943359 c -10.72241,0.526758 -21.28134,4.295642 -29.99023,11.871092 -31.049903,22.81245 -25.1059523,75.526439 10.24804,90.849609 34.051,18.0993 79.020389,-10.18127 77.417969,-48.728509 -0.007,-5.60821 -0.89319,-11.20366 -2.62109,-16.53907 C 98.273691,29.380411 73.822201,14.779738 50.136121,15.943359 Z m 0.54492,8.126952 c 20.12881,-0.82416 41.11681,11.59744 46.84375,31.59961 l 0.0195,0.0684 0.0215,0.0684 c 1.48862,4.57721 2.25328,9.39774 2.25195,14.21094 v 0.0879 l 0.004,0.0879 c 1.398399,32.174539 -37.42708,56.569549 -65.8086,41.349609 l -0.15234,-0.082 -0.16016,-0.0684 C 4.1055607,98.692491 -1.0275673,53.127341 24.999401,34.160161 l 0.14453,-0.10547 0.13477,-0.11914 c 7.28035,-6.37947 16.25288,-9.49062 25.40234,-9.86524 z"
         id="circle1" />
      <path
         style="stroke-linecap:round"
         d="m 28.237681,93.099611 a 2.5,2.5 0 0 0 -1.76758,0.73242 l -8.56054,8.560549 a 2.5,2.5 0 0 0 0,3.53515 2.5,2.5 0 0 0 3.53515,0 l 8.56055,-8.560539 a 2.5,2.5 0 0 0 0,-3.53516 2.5,2.5 0 0 0 -1.76758,-0.73242 z"
         id="path1" />
      <path
         style="fill:#ff0000;stroke-linecap:round"
         d="m 34.499401,84.742191 -8.56055,8.55859 a 3.25,3.25 0 0 0 0,4.59766 3.25,3.25 0 0 0 4.59766,0 l 8.55859,-8.56055 a 3.25,3.25 0 0 0 0,-4.5957 3.25,3.25 0 0 0 -4.5957,0 z"
         id="path2" />
      <path
         style="fill:#ff0000;stroke-linecap:round"
         d="m 45.356821,74.480471 a 4,4 0 0 0 -2.82812,1.16992 l -8.5586,8.56055 a 4,4 0 0 0 0,5.65625 4,4 0 0 0 5.65625,0 l 8.56055,-8.5586 a 4,4 0 0 0 0,-5.6582 4,4 0 0 0 -2.83008,-1.16992 z"
         id="path3" />
      <path
         style="fill:#ff0000;stroke-linecap:round"
         d="m 53.917371,65.169921 a 4.75,4.75 0 0 0 -3.35742,1.39063 l -8.56055,8.56054 a 4.75,4.75 0 0 0 0,6.7168 4.75,4.75 0 0 0 6.7168,0 l 8.56054,-8.56055 a 4.75,4.75 0 0 0 0,-6.71679 4.75,4.75 0 0 0 -3.35937,-1.39063 z"
         id="path4" />
      <path
         style="fill:#ff0000;stroke-linecap:round"
         d="m 62.477921,55.859371 a 5.5,5.5 0 0 0 -3.88868,1.61133 l -8.56054,8.56055 a 5.5,5.5 0 0 0 0,7.77734 5.5,5.5 0 0 0 7.77734,0 l 8.56055,-8.56054 a 5.5,5.5 0 0 0 0,-7.77735 5.5,5.5 0 0 0 -3.88867,-1.61133 z"
         id="path5" />
      <path
         style="fill:#ff0000;stroke-linecap:round"
         d="m 71.038461,46.548831 a 6.25,6.25 0 0 0 -4.41992,1.83203 l -8.56055,8.55859 a 6.25,6.25 0 0 0 0,8.83985 6.25,6.25 0 0 0 8.83985,0 l 8.55859,-8.56055 a 6.25,6.25 0 0 0 0,-8.83789 6.25,6.25 0 0 0 -4.41797,-1.83203 z"
         id="path6" />
      <path
         style="fill:#ff0000;stroke-linecap:round"
         d="m 79.597061,37.240231 a 7,7 0 0 0 -4.94922,2.04883 l -8.56055,8.56055 a 7,7 0 0 0 0,9.90039 7,7 0 0 0 9.90039,0 l 8.56055,-8.56055 a 7,7 0 0 0 0,-9.90039 7,7 0 0 0 -4.95117,-2.04883 z"
         id="path7" />
      <path
         style="fill:#ff0000;stroke-linecap:round"
         d="m 88.157601,27.929691 a 7.75,7.75 0 0 0 -5.48047,2.26953 l -8.55859,8.56054 a 7.75,7.75 0 0 0 0,10.95899 7.75,7.75 0 0 0 10.95899,0 l 8.56054,-8.55859 a 7.75,7.75 0 0 0 0,-10.96094 7.75,7.75 0 0 0 -5.48047,-2.26953 z"
         id="path8" />
      <path
         style="fill:#ff0000;stroke-linecap:round"
         d="m 96.718151,18.61914 a 8.5,8.5 0 0 0 -6.01172,2.490231 l -8.55859,8.56055 a 8.5,8.5 0 0 0 0,12.01953 8.5,8.5 0 0 0 12.01953,0 l 8.560549,-8.55859 a 8.5,8.5 0 0 0 0,-12.02149 8.5,8.5 0 0 0 -6.009769,-2.490231 z"
         id="path9" />
      <path
         style="fill:#ff0000;stroke-linecap:round"
         d="m 105.2787,9.3085933 a 9.25,9.25 0 0 0 -6.541019,2.7109377 l -8.56055,8.55859 a 9.25,9.25 0 0 0 0,13.08204 9.25,9.25 0 0 0 13.082039,0 l 8.55859,-8.56055 a 9.25,9.25 0 0 0 0,-13.08008 9.25,9.25 0 0 0 -6.53906,-2.7109377 z"
         id="path10" />
      <path
         style="fill:#ff0000;stroke-linecap:round"
         d="M 113.83729,2.880699e-7 A 10,10 0 0 0 106.76698,2.9277343 c -2.85332,2.853326 -5.70721,5.707207 -8.560549,8.5605467 a 10,10 0 0 0 0,14.14258 10,10 0 0 0 14.142579,0 c 2.85332,-2.85333 5.70721,-5.707208 8.56055,-8.560549 a 10,10 0 0 0 0,-14.1425777 A 10,10 0 0 0 113.83729,2.880699e-7 Z"
         id="path11" />
    </pattern>
  </defs>
  <sodipodi:namedview
     id="namedview11"
     pagecolor="#ffffff"
     bordercolor="#000000"
     borderopacity="0.25"
     inkscape:showpageshadow="2"
     inkscape:pageopacity="0.0"
     inkscape:pagecheckerboard="0"
     inkscape:deskcolor="#d1d1d1"
     inkscape:zoom="1.95"
     inkscape:cx="150.25641"
     inkscape:cy="150"
     inkscape:window-width="1472"
     inkscape:window-height="806"
     inkscape:window-x="0"
     inkscape:window-y="37"
     inkscape:window-maximized="1"
     inkscape:current-layer="svg11" />
  <!-- 画一个圆形轮廓 -->
  <!-- 使用路径绘制逐步增粗的直线 -->
  <!-- 定义起点和终点的坐标 -->
  <path
     id="rect13"
     style="fill:url(#pattern1);stroke-width:2.41834"
     d="M 0,0 H 300 V 300 H 0 Z" />
</svg>
